<mxfile host="app.diagrams.net" modified="2022-06-11T11:59:40.938Z" agent="5.0 (Windows NT 10.0; Win64; x64) AppleWebKit/537.36 (KHTML, like Gecko) Chrome/102.0.5005.63 Safari/537.36" etag="N-QyipnmmaqkIjDN27RB" version="19.0.3" type="github">
  <diagram id="kgpKYQtTHZ0yAKxKKP6v" name="Page-1">
    <mxGraphModel dx="427" dy="430" grid="1" gridSize="10" guides="1" tooltips="1" connect="1" arrows="1" fold="1" page="1" pageScale="1" pageWidth="850" pageHeight="1100" math="0" shadow="0">
      <root>
        <mxCell id="0" />
        <mxCell id="1" parent="0" />
        <mxCell id="3nuBFxr9cyL0pnOWT2aG-1" value="" style="shape=umlLifeline;perimeter=lifelinePerimeter;container=1;collapsible=0;recursiveResize=0;rounded=0;shadow=0;strokeWidth=1;" parent="1" vertex="1">
          <mxGeometry x="120" y="80" width="100" height="300" as="geometry" />
        </mxCell>
        <mxCell id="3nuBFxr9cyL0pnOWT2aG-2" value="" style="points=[];perimeter=orthogonalPerimeter;rounded=0;shadow=0;strokeWidth=1;" parent="3nuBFxr9cyL0pnOWT2aG-1" vertex="1">
          <mxGeometry x="45" y="70" width="10" height="190" as="geometry" />
        </mxCell>
        <mxCell id="3oYtwdfOI3iynbBoZkie-5" value="pilih cetak laporan()" style="verticalAlign=bottom;endArrow=block;shadow=0;strokeWidth=1;" edge="1" parent="3nuBFxr9cyL0pnOWT2aG-1">
          <mxGeometry relative="1" as="geometry">
            <mxPoint x="-70" y="80.00000000000017" as="sourcePoint" />
            <mxPoint x="40" y="80" as="targetPoint" />
          </mxGeometry>
        </mxCell>
        <mxCell id="3oYtwdfOI3iynbBoZkie-12" value="laporan berhasil dicetak" style="verticalAlign=bottom;endArrow=block;shadow=0;strokeWidth=1;" edge="1" parent="3nuBFxr9cyL0pnOWT2aG-1">
          <mxGeometry relative="1" as="geometry">
            <mxPoint x="234.61" y="220" as="sourcePoint" />
            <mxPoint x="55.003939393939504" y="220" as="targetPoint" />
            <Array as="points">
              <mxPoint x="185.11" y="220" />
            </Array>
          </mxGeometry>
        </mxCell>
        <mxCell id="3oYtwdfOI3iynbBoZkie-17" value="&lt;span style=&quot;&quot;&gt;laporan data penjualan&lt;/span&gt;" style="text;html=1;strokeColor=none;fillColor=none;align=center;verticalAlign=middle;whiteSpace=wrap;rounded=0;" vertex="1" parent="3nuBFxr9cyL0pnOWT2aG-1">
          <mxGeometry width="100" height="40" as="geometry" />
        </mxCell>
        <mxCell id="3nuBFxr9cyL0pnOWT2aG-5" value="" style="shape=umlLifeline;perimeter=lifelinePerimeter;container=1;collapsible=0;recursiveResize=0;rounded=0;shadow=0;strokeWidth=1;" parent="1" vertex="1">
          <mxGeometry x="300" y="80" width="100" height="300" as="geometry" />
        </mxCell>
        <mxCell id="3nuBFxr9cyL0pnOWT2aG-6" value="" style="points=[];perimeter=orthogonalPerimeter;rounded=0;shadow=0;strokeWidth=1;" parent="3nuBFxr9cyL0pnOWT2aG-5" vertex="1">
          <mxGeometry x="45" y="110" width="10" height="130" as="geometry" />
        </mxCell>
        <mxCell id="3oYtwdfOI3iynbBoZkie-18" value="&lt;span style=&quot;&quot;&gt;controler laporan penjualan&lt;/span&gt;" style="text;html=1;strokeColor=none;fillColor=none;align=center;verticalAlign=middle;whiteSpace=wrap;rounded=0;" vertex="1" parent="3nuBFxr9cyL0pnOWT2aG-5">
          <mxGeometry width="100" height="40" as="geometry" />
        </mxCell>
        <mxCell id="3nuBFxr9cyL0pnOWT2aG-8" value="laporan di cetak()" style="verticalAlign=bottom;endArrow=block;shadow=0;strokeWidth=1;exitX=0.993;exitY=0.274;exitDx=0;exitDy=0;exitPerimeter=0;" parent="1" source="3nuBFxr9cyL0pnOWT2aG-2" target="3nuBFxr9cyL0pnOWT2aG-5" edge="1">
          <mxGeometry relative="1" as="geometry">
            <mxPoint x="275" y="160" as="sourcePoint" />
            <mxPoint x="330" y="180" as="targetPoint" />
          </mxGeometry>
        </mxCell>
        <mxCell id="3oYtwdfOI3iynbBoZkie-1" value="" style="shape=umlActor;verticalLabelPosition=bottom;verticalAlign=top;html=1;outlineConnect=0;" vertex="1" parent="1">
          <mxGeometry x="30" y="80" width="30" height="60" as="geometry" />
        </mxCell>
        <mxCell id="3oYtwdfOI3iynbBoZkie-2" value="" style="endArrow=none;dashed=1;html=1;dashPattern=1 3;strokeWidth=2;rounded=0;" edge="1" parent="1" target="3oYtwdfOI3iynbBoZkie-1">
          <mxGeometry width="50" height="50" relative="1" as="geometry">
            <mxPoint x="40" y="380" as="sourcePoint" />
            <mxPoint x="100" y="230" as="targetPoint" />
          </mxGeometry>
        </mxCell>
        <mxCell id="3oYtwdfOI3iynbBoZkie-4" value="Admin" style="text;html=1;align=center;verticalAlign=middle;resizable=0;points=[];autosize=1;strokeColor=none;fillColor=none;" vertex="1" parent="1">
          <mxGeometry x="25" y="60" width="50" height="20" as="geometry" />
        </mxCell>
        <mxCell id="3oYtwdfOI3iynbBoZkie-6" value="" style="shape=umlLifeline;perimeter=lifelinePerimeter;container=1;collapsible=0;recursiveResize=0;rounded=0;shadow=0;strokeWidth=1;" vertex="1" parent="1">
          <mxGeometry x="480" y="80" width="100" height="300" as="geometry" />
        </mxCell>
        <mxCell id="3oYtwdfOI3iynbBoZkie-10" value="laporan cetak" style="verticalAlign=bottom;endArrow=block;shadow=0;strokeWidth=1;" edge="1" parent="3oYtwdfOI3iynbBoZkie-6" source="3oYtwdfOI3iynbBoZkie-6">
          <mxGeometry relative="1" as="geometry">
            <mxPoint x="35" y="180" as="sourcePoint" />
            <mxPoint x="-125" y="180" as="targetPoint" />
            <Array as="points">
              <mxPoint x="-5" y="180" />
            </Array>
          </mxGeometry>
        </mxCell>
        <mxCell id="3oYtwdfOI3iynbBoZkie-7" value="" style="points=[];perimeter=orthogonalPerimeter;rounded=0;shadow=0;strokeWidth=1;" vertex="1" parent="3oYtwdfOI3iynbBoZkie-6">
          <mxGeometry x="45" y="110" width="10" height="130" as="geometry" />
        </mxCell>
        <mxCell id="3oYtwdfOI3iynbBoZkie-13" value="" style="points=[];perimeter=orthogonalPerimeter;rounded=0;shadow=0;strokeWidth=1;" vertex="1" parent="3oYtwdfOI3iynbBoZkie-6">
          <mxGeometry x="55" y="120" width="10" height="40" as="geometry" />
        </mxCell>
        <mxCell id="3oYtwdfOI3iynbBoZkie-16" style="edgeStyle=orthogonalEdgeStyle;rounded=0;orthogonalLoop=1;jettySize=auto;html=1;entryX=0.969;entryY=0.785;entryDx=0;entryDy=0;entryPerimeter=0;" edge="1" parent="3oYtwdfOI3iynbBoZkie-6" source="3oYtwdfOI3iynbBoZkie-13" target="3oYtwdfOI3iynbBoZkie-13">
          <mxGeometry relative="1" as="geometry">
            <Array as="points">
              <mxPoint x="85" y="120" />
              <mxPoint x="85" y="151" />
            </Array>
          </mxGeometry>
        </mxCell>
        <mxCell id="3oYtwdfOI3iynbBoZkie-9" value="cetak laporan()" style="verticalAlign=bottom;endArrow=block;shadow=0;strokeWidth=1;entryX=0.079;entryY=-0.004;entryDx=0;entryDy=0;entryPerimeter=0;exitX=1.115;exitY=0.008;exitDx=0;exitDy=0;exitPerimeter=0;" edge="1" parent="1" source="3nuBFxr9cyL0pnOWT2aG-6" target="3oYtwdfOI3iynbBoZkie-7">
          <mxGeometry relative="1" as="geometry">
            <mxPoint x="360" y="190.00000000000017" as="sourcePoint" />
            <mxPoint x="470.00000000000006" y="190" as="targetPoint" />
          </mxGeometry>
        </mxCell>
        <mxCell id="3oYtwdfOI3iynbBoZkie-19" value="&amp;nbsp;data laporan&lt;br&gt;&amp;nbsp;penjualan" style="text;html=1;strokeColor=none;fillColor=none;align=center;verticalAlign=middle;whiteSpace=wrap;rounded=0;" vertex="1" parent="1">
          <mxGeometry x="480" y="80" width="100" height="40" as="geometry" />
        </mxCell>
        <mxCell id="3oYtwdfOI3iynbBoZkie-22" value="cetak data" style="text;html=1;strokeColor=none;fillColor=none;align=center;verticalAlign=middle;whiteSpace=wrap;rounded=0;" vertex="1" parent="1">
          <mxGeometry x="570" y="200" width="60" height="30" as="geometry" />
        </mxCell>
      </root>
    </mxGraphModel>
  </diagram>
</mxfile>
